<?xml version="1.0" encoding="UTF-8"?><svg xmlns="http://www.w3.org/2000/svg" viewBox="0 0 80.65 46.75"><defs><style>.d{fill:#616266;}</style></defs><g id="a"/><g id="b"><g id="c"><g><path class="d" d="M30.43,8.03v-3.99c0-3.11-3.37-5.05-6.06-3.5L2.02,13.45c-2.69,1.56-2.69,5.44,0,7l22.35,12.91c2.69,1.56,6.06-.39,6.06-3.5v-3.99c0-1.8,1.19-3.38,2.92-3.88l8.85-2.55c2.49-.72,2.49-4.25,0-4.97l-8.85-2.55c-1.73-.5-2.92-2.08-2.92-3.88Z"/><path class="d" d="M50.21,38.72v3.99c0,3.11,3.37,5.05,6.06,3.5l22.35-12.91c2.69-1.56,2.69-5.44,0-7l-22.35-12.91c-2.69-1.56-6.06,.39-6.06,3.5v3.99c0,1.8-1.19,3.38-2.92,3.88l-8.85,2.55c-2.49,.72-2.49,4.25,0,4.97l8.85,2.55c1.73,.5,2.92,2.08,2.92,3.88Z"/></g></g></g></svg>