<?xml version="1.0" encoding="UTF-8"?><svg xmlns="http://www.w3.org/2000/svg" viewBox="0 0 48.7 46.68"><defs><style>.d{fill:#616266;}</style></defs><g id="a"/><g id="b"><g id="c"><path class="d" d="M30.73,46.68c-.83,0-1.65-.28-2.31-.82l-4.06-3.3-4.08,3.3c-.97,.79-2.26,1.03-3.45,.64-1.19-.39-2.09-1.34-2.41-2.55l-1.35-5.06-5.24,.27c-1.26,.07-2.44-.5-3.17-1.51-.74-1.01-.91-2.31-.46-3.48l1.88-4.88-4.4-2.86c-1.05-.68-1.68-1.83-1.68-3.08s.63-2.4,1.68-3.08l4.4-2.84-1.88-4.9c-.45-1.17-.28-2.47,.46-3.48,.74-1.01,1.93-1.58,3.17-1.51l5.23,.28,1.36-5.07c.32-1.21,1.22-2.16,2.41-2.55,1.19-.39,2.48-.15,3.45,.64l4.06,3.3,1.17,1.42-1.15-1.42L28.42,.82c.97-.79,2.26-1.03,3.45-.64,1.19,.39,2.09,1.34,2.41,2.55l1.35,5.06,5.24-.27c1.26-.06,2.44,.5,3.17,1.51,.74,1.01,.91,2.31,.46,3.48l-1.88,4.88,4.4,2.86c1.05,.68,1.68,1.83,1.68,3.08s-.63,2.4-1.68,3.08l-4.4,2.84,1.88,4.9c.45,1.17,.28,2.47-.46,3.48-.74,1.01-1.93,1.58-3.17,1.51l-5.23-.28-1.36,5.07c-.32,1.21-1.22,2.16-2.41,2.55-.37,.12-.76,.18-1.14,.18Z"/></g></g></svg>