<?xml version="1.0" encoding="UTF-8"?><svg xmlns="http://www.w3.org/2000/svg" viewBox="0 0 54.71 39.95"><defs><style>.e{fill:#616266;}</style></defs><g id="a"/><g id="b"><g id="c"><g id="d"><path class="e" d="M48.61,39.95c-.64,0-1.31-.1-2-.32-3.11-.96-5.28-3.26-7.2-5.29-1.98-2.1-3.69-3.91-6.05-4.19-1.8-.21-10.22-.21-12.01,0h0c-2.36,.28-4.07,2.09-6.04,4.19-1.92,2.03-4.09,4.33-7.2,5.29-2.74,.84-5.13,0-6.55-2.32C-2.76,30.31,2.62,9.6,9.13,2.83,12.87-1.05,16.15-.1,17.77,.81c3.53,1.98,6.8,2.15,9.59,2.15s6.06-.17,9.59-2.15c1.62-.91,4.9-1.86,8.63,2.02,6.52,6.77,11.89,27.48,7.59,34.48-1.06,1.73-2.67,2.64-4.55,2.64Z"/></g></g></g></svg>