<?xml version="1.0" encoding="UTF-8"?><svg xmlns="http://www.w3.org/2000/svg" viewBox="0 0 44.79 49.87"><defs><style>.d{fill:#616266;}</style></defs><g id="a"/><g id="b"><g id="c"><g><path class="d" d="M39.25,8.27h-.42v3.7h.42c1.02,0,1.85,.83,1.85,1.85v30.51c0,1.02-.83,1.85-1.85,1.85H13.36c-1.02,0-1.85-.83-1.85-1.85v-.88h-3.7v.88c0,3.06,2.48,5.55,5.55,5.55h25.89c3.06,0,5.55-2.48,5.55-5.55V13.82c0-3.06-2.48-5.55-5.55-5.55Z"/><path class="d" d="M31.43,0H5.55C2.48,0,0,2.48,0,5.55v30.51c0,3.06,2.48,5.55,5.55,5.55H31.43c3.06,0,5.55-2.48,5.55-5.55V5.55c0-3.06-2.48-5.55-5.55-5.55h0Z"/></g></g></g></svg>